<?xml version="1.0" encoding="UTF-8" standalone="no"?>
<!DOCTYPE svg PUBLIC "-//W3C//DTD SVG 1.1//EN"
 "http://www.w3.org/Graphics/SVG/1.1/DTD/svg11.dtd">
<!-- Generated by graphviz version 2.46.0 (20210118.1747)
 -->
<!-- Title: main Pages: 1 -->
<svg width="272pt" height="47pt"
 viewBox="0.00 0.00 272.00 47.00" xmlns="http://www.w3.org/2000/svg" xmlns:xlink="http://www.w3.org/1999/xlink">
<g id="graph0" class="graph" transform="scale(1 1) rotate(0) translate(4 43)">
<title>main</title>
<polygon fill="white" stroke="transparent" points="-4,4 -4,-43 268,-43 268,4 -4,4"/>
<!-- Node1 -->
<g id="node1" class="node">
<title>Node1</title>
<g id="a_node1"><a xlink:title="Main function.">
<polygon fill="#bfbfbf" stroke="black" points="0,-19.5 0,-38.5 38,-38.5 38,-19.5 0,-19.5"/>
<text text-anchor="middle" x="19" y="-26.5" font-family="Helvetica,sans-Serif" font-size="10.00">main</text>
</a>
</g>
</g>
<!-- Node2 -->
<g id="node2" class="node">
<title>Node2</title>
<g id="a_node2"><a xlink:href="../../dd/d47/namespacemath.html#a4921caa440df557d6fb75f953c51d990" target="_top" xlink:title="Function to calculate binomial coefficients.">
<polygon fill="white" stroke="black" points="184,-19.5 184,-38.5 264,-38.5 264,-19.5 184,-19.5"/>
<text text-anchor="middle" x="224" y="-26.5" font-family="Helvetica,sans-Serif" font-size="10.00">math::binomial</text>
</a>
</g>
</g>
<!-- Node1&#45;&gt;Node2 -->
<g id="edge1" class="edge">
<title>Node1&#45;&gt;Node2</title>
<path fill="none" stroke="midnightblue" d="M38.01,-29C68.11,-29 129.62,-29 173.44,-29"/>
<polygon fill="midnightblue" stroke="midnightblue" points="173.62,-32.5 183.62,-29 173.62,-25.5 173.62,-32.5"/>
</g>
<!-- Node3 -->
<g id="node3" class="node">
<title>Node3</title>
<g id="a_node3"><a xlink:href="../../d8/d9f/binomial_8cpp.html#a3e1c112d8a48498dfbb20739db3d373d" target="_top" xlink:title="Test implementations.">
<polygon fill="white" stroke="black" points="74,-0.5 74,-19.5 148,-19.5 148,-0.5 74,-0.5"/>
<text text-anchor="middle" x="111" y="-7.5" font-family="Helvetica,sans-Serif" font-size="10.00">binomial_test</text>
</a>
</g>
</g>
<!-- Node1&#45;&gt;Node3 -->
<g id="edge2" class="edge">
<title>Node1&#45;&gt;Node3</title>
<path fill="none" stroke="midnightblue" d="M38.21,-25.16C45.76,-23.56 54.88,-21.64 64.06,-19.7"/>
<polygon fill="midnightblue" stroke="midnightblue" points="64.9,-23.1 73.96,-17.61 63.45,-16.25 64.9,-23.1"/>
</g>
<!-- Node3&#45;&gt;Node2 -->
<g id="edge3" class="edge">
<title>Node3&#45;&gt;Node2</title>
<path fill="none" stroke="midnightblue" d="M148.04,-16.17C156.23,-17.57 165.07,-19.08 173.7,-20.56"/>
<polygon fill="midnightblue" stroke="midnightblue" points="173.25,-24.03 183.69,-22.27 174.43,-17.13 173.25,-24.03"/>
</g>
</g>
</svg>
